<mxfile host="65bd71144e">
    <diagram id="mE-6yuTSuJjZ2OgScUR7" name="Page-1">
        <mxGraphModel dx="2001" dy="1536" grid="1" gridSize="10" guides="1" tooltips="1" connect="1" arrows="1" fold="1" page="1" pageScale="1" pageWidth="850" pageHeight="1100" math="0" shadow="0">
            <root>
                <mxCell id="0"/>
                <mxCell id="1" parent="0"/>
                <mxCell id="30" value="Model Test Question" style="swimlane;childLayout=stackLayout;horizontal=1;startSize=30;horizontalStack=0;rounded=1;fontSize=14;fontStyle=0;strokeWidth=2;resizeParent=0;resizeLast=1;shadow=0;dashed=0;align=center;" parent="1" vertex="1">
                    <mxGeometry x="500" y="100" width="140" height="150" as="geometry"/>
                </mxCell>
                <mxCell id="31" value="Question text&#10;Option 1&#10;Option 2&#10;Option 3&#10;Option 4&#10;Answer&#10;Explanation" style="align=left;strokeColor=none;fillColor=none;spacingLeft=4;fontSize=12;verticalAlign=top;resizable=0;rotatable=0;part=1;" parent="30" vertex="1">
                    <mxGeometry y="30" width="140" height="120" as="geometry"/>
                </mxCell>
                <mxCell id="32" value="Model Test" style="swimlane;childLayout=stackLayout;horizontal=1;startSize=30;horizontalStack=0;rounded=1;fontSize=14;fontStyle=0;strokeWidth=2;resizeParent=0;resizeLast=1;shadow=0;dashed=0;align=center;" parent="1" vertex="1">
                    <mxGeometry x="282" y="159" width="140" height="181" as="geometry"/>
                </mxCell>
                <mxCell id="33" value="Name&#10;Date&#10;StartTime&#10;EndTime&#10;CutOffPercetage&#10;Status&#10;MarkForCorrectAnswer&#10;MarkForWrongAnswer" style="align=left;strokeColor=none;fillColor=none;spacingLeft=4;fontSize=12;verticalAlign=top;resizable=0;rotatable=0;part=1;" parent="32" vertex="1">
                    <mxGeometry y="30" width="140" height="151" as="geometry"/>
                </mxCell>
                <mxCell id="34" value="Chapter" style="swimlane;childLayout=stackLayout;horizontal=1;startSize=30;horizontalStack=0;rounded=1;fontSize=14;fontStyle=0;strokeWidth=2;resizeParent=0;resizeLast=1;shadow=0;dashed=0;align=center;" parent="1" vertex="1">
                    <mxGeometry x="434" y="-150" width="100" height="70" as="geometry"/>
                </mxCell>
                <mxCell id="35" value="name" style="align=left;strokeColor=none;fillColor=none;spacingLeft=4;fontSize=12;verticalAlign=top;resizable=0;rotatable=0;part=1;" parent="34" vertex="1">
                    <mxGeometry y="30" width="100" height="40" as="geometry"/>
                </mxCell>
                <mxCell id="36" value="Reference" style="swimlane;childLayout=stackLayout;horizontal=1;startSize=30;horizontalStack=0;rounded=1;fontSize=14;fontStyle=0;strokeWidth=2;resizeParent=0;resizeLast=1;shadow=0;dashed=0;align=center;" parent="1" vertex="1">
                    <mxGeometry x="317.5" y="438" width="89" height="72" as="geometry"/>
                </mxCell>
                <mxCell id="37" value="name" style="align=left;strokeColor=none;fillColor=none;spacingLeft=4;fontSize=12;verticalAlign=top;resizable=0;rotatable=0;part=1;" parent="36" vertex="1">
                    <mxGeometry y="30" width="89" height="42" as="geometry"/>
                </mxCell>
                <mxCell id="54" value="" style="edgeStyle=entityRelationEdgeStyle;fontSize=12;html=1;endArrow=ERmany;startArrow=ERmany;shadow=0;entryX=0;entryY=0.5;entryDx=0;entryDy=0;exitX=1;exitY=0.25;exitDx=0;exitDy=0;" parent="1" source="33" target="31" edge="1">
                    <mxGeometry width="100" height="100" relative="1" as="geometry">
                        <mxPoint x="432" y="410" as="sourcePoint"/>
                        <mxPoint x="532" y="310" as="targetPoint"/>
                    </mxGeometry>
                </mxCell>
                <mxCell id="56" value="Subject" style="swimlane;childLayout=stackLayout;horizontal=1;startSize=30;horizontalStack=0;rounded=1;fontSize=14;fontStyle=0;strokeWidth=2;resizeParent=0;resizeLast=1;shadow=0;dashed=0;align=center;" parent="1" vertex="1">
                    <mxGeometry x="282" y="-150" width="80" height="70" as="geometry"/>
                </mxCell>
                <mxCell id="57" value="Name" style="align=left;strokeColor=none;fillColor=none;spacingLeft=4;fontSize=12;verticalAlign=top;resizable=0;rotatable=0;part=1;" parent="56" vertex="1">
                    <mxGeometry y="30" width="80" height="40" as="geometry"/>
                </mxCell>
                <mxCell id="58" value="" style="edgeStyle=entityRelationEdgeStyle;fontSize=12;html=1;endArrow=ERmany;startArrow=ERmany;shadow=0;entryX=0;entryY=0.75;entryDx=0;entryDy=0;exitX=1;exitY=0.25;exitDx=0;exitDy=0;" parent="1" source="37" target="31" edge="1">
                    <mxGeometry width="100" height="100" relative="1" as="geometry">
                        <mxPoint x="412" y="468.0000000000002" as="sourcePoint"/>
                        <mxPoint x="491" y="330" as="targetPoint"/>
                    </mxGeometry>
                </mxCell>
                <mxCell id="60" value="" style="edgeStyle=entityRelationEdgeStyle;fontSize=12;html=1;endArrow=ERoneToMany;shadow=0;exitX=1;exitY=0.25;exitDx=0;exitDy=0;" parent="1" source="35" target="31" edge="1">
                    <mxGeometry width="100" height="100" relative="1" as="geometry">
                        <mxPoint x="542" y="190" as="sourcePoint"/>
                        <mxPoint x="370" y="80" as="targetPoint"/>
                    </mxGeometry>
                </mxCell>
                <mxCell id="64" value="" style="edgeStyle=entityRelationEdgeStyle;fontSize=12;html=1;endArrow=ERoneToMany;shadow=0;entryX=0;entryY=0.5;entryDx=0;entryDy=0;exitX=1;exitY=0;exitDx=0;exitDy=0;" parent="1" source="57" target="34" edge="1">
                    <mxGeometry width="100" height="100" relative="1" as="geometry">
                        <mxPoint x="354" y="-110" as="sourcePoint"/>
                        <mxPoint x="364" y="-10" as="targetPoint"/>
                    </mxGeometry>
                </mxCell>
                <mxCell id="65" value="Course" style="swimlane;childLayout=stackLayout;horizontal=1;startSize=30;horizontalStack=0;rounded=1;fontSize=14;fontStyle=0;strokeWidth=2;resizeParent=0;resizeLast=1;shadow=0;dashed=0;align=center;" parent="1" vertex="1">
                    <mxGeometry x="-180" y="50" width="90" height="100" as="geometry"/>
                </mxCell>
                <mxCell id="66" value="name&#10;status&#10;type" style="align=left;strokeColor=none;fillColor=none;spacingLeft=4;fontSize=12;verticalAlign=top;resizable=0;rotatable=0;part=1;" parent="65" vertex="1">
                    <mxGeometry y="30" width="90" height="70" as="geometry"/>
                </mxCell>
                <mxCell id="67" value="Lecture" style="swimlane;childLayout=stackLayout;horizontal=1;startSize=30;horizontalStack=0;rounded=1;fontSize=14;fontStyle=0;strokeWidth=2;resizeParent=0;resizeLast=1;shadow=0;dashed=0;align=center;" parent="1" vertex="1">
                    <mxGeometry x="-435" y="89" width="110" height="70" as="geometry"/>
                </mxCell>
                <mxCell id="69" value="" style="edgeStyle=entityRelationEdgeStyle;fontSize=12;html=1;endArrow=ERzeroToMany;endFill=1;shadow=0;exitX=1;exitY=0.25;exitDx=0;exitDy=0;entryX=0;entryY=0;entryDx=0;entryDy=0;" parent="1" source="67" target="66" edge="1">
                    <mxGeometry width="100" height="100" relative="1" as="geometry">
                        <mxPoint x="-245" y="314" as="sourcePoint"/>
                        <mxPoint x="-145" y="214" as="targetPoint"/>
                    </mxGeometry>
                </mxCell>
                <mxCell id="70" value="Tutorial" style="swimlane;childLayout=stackLayout;horizontal=1;startSize=30;horizontalStack=0;rounded=1;fontSize=14;fontStyle=0;strokeWidth=2;resizeParent=0;resizeLast=1;shadow=0;dashed=0;align=center;" parent="1" vertex="1">
                    <mxGeometry x="-584" y="94" width="90" height="60" as="geometry"/>
                </mxCell>
                <mxCell id="71" value="file" style="align=left;strokeColor=none;fillColor=none;spacingLeft=4;fontSize=12;verticalAlign=top;resizable=0;rotatable=0;part=1;" parent="70" vertex="1">
                    <mxGeometry y="30" width="90" height="30" as="geometry"/>
                </mxCell>
                <mxCell id="72" value="Handnote" style="swimlane;childLayout=stackLayout;horizontal=1;startSize=30;horizontalStack=0;rounded=1;fontSize=14;fontStyle=0;strokeWidth=2;resizeParent=0;resizeLast=1;shadow=0;dashed=0;align=center;" parent="1" vertex="1">
                    <mxGeometry x="-365" y="234" width="90" height="70" as="geometry"/>
                </mxCell>
                <mxCell id="73" value="file" style="align=left;strokeColor=none;fillColor=none;spacingLeft=4;fontSize=12;verticalAlign=top;resizable=0;rotatable=0;part=1;" parent="72" vertex="1">
                    <mxGeometry y="30" width="90" height="40" as="geometry"/>
                </mxCell>
                <mxCell id="76" value="" style="edgeStyle=entityRelationEdgeStyle;fontSize=12;html=1;endArrow=ERzeroToMany;endFill=1;shadow=0;entryX=1;entryY=0.75;entryDx=0;entryDy=0;exitX=0.5;exitY=0;exitDx=0;exitDy=0;" parent="1" source="72" target="67" edge="1">
                    <mxGeometry width="100" height="100" relative="1" as="geometry">
                        <mxPoint x="-395" y="304" as="sourcePoint"/>
                        <mxPoint x="-295" y="204" as="targetPoint"/>
                    </mxGeometry>
                </mxCell>
                <mxCell id="78" value="" style="edgeStyle=entityRelationEdgeStyle;fontSize=12;html=1;endArrow=ERmandOne;startArrow=ERmandOne;shadow=0;entryX=0;entryY=0.5;entryDx=0;entryDy=0;exitX=1;exitY=0.5;exitDx=0;exitDy=0;" parent="1" source="70" target="67" edge="1">
                    <mxGeometry width="100" height="100" relative="1" as="geometry">
                        <mxPoint x="-554" y="184" as="sourcePoint"/>
                        <mxPoint x="-474" y="134" as="targetPoint"/>
                    </mxGeometry>
                </mxCell>
                <mxCell id="79" value="TeacherLead" style="swimlane;childLayout=stackLayout;horizontal=1;startSize=30;horizontalStack=0;rounded=1;fontSize=14;fontStyle=0;strokeWidth=2;resizeParent=0;resizeLast=1;shadow=0;dashed=0;align=center;" parent="1" vertex="1">
                    <mxGeometry x="520" y="370" width="140" height="100" as="geometry"/>
                </mxCell>
                <mxCell id="80" value="email&#10;aboutMe" style="align=left;strokeColor=none;fillColor=none;spacingLeft=4;fontSize=12;verticalAlign=top;resizable=0;rotatable=0;part=1;" parent="79" vertex="1">
                    <mxGeometry y="30" width="140" height="70" as="geometry"/>
                </mxCell>
                <mxCell id="81" value="TeacherActivationLog" style="swimlane;childLayout=stackLayout;horizontal=1;startSize=30;horizontalStack=0;rounded=1;fontSize=14;fontStyle=0;strokeWidth=2;resizeParent=0;resizeLast=1;shadow=0;dashed=0;align=center;" parent="1" vertex="1">
                    <mxGeometry x="510" y="520" width="160" height="120" as="geometry"/>
                </mxCell>
                <mxCell id="82" value="email&#10;activationCode&#10;userType&#10;status" style="align=left;strokeColor=none;fillColor=none;spacingLeft=4;fontSize=12;verticalAlign=top;resizable=0;rotatable=0;part=1;" parent="81" vertex="1">
                    <mxGeometry y="30" width="160" height="90" as="geometry"/>
                </mxCell>
                <mxCell id="83" value="Teacher" style="swimlane;childLayout=stackLayout;horizontal=1;startSize=30;horizontalStack=0;rounded=1;fontSize=14;fontStyle=0;strokeWidth=2;resizeParent=0;resizeLast=1;shadow=0;dashed=0;align=center;" parent="1" vertex="1">
                    <mxGeometry x="-160" y="-151.5" width="140" height="123" as="geometry"/>
                </mxCell>
                <mxCell id="84" value="name&#10;email&#10;phone&#10;workExperience&#10;Profilepicture" style="align=left;strokeColor=none;fillColor=none;spacingLeft=4;fontSize=12;verticalAlign=top;resizable=0;rotatable=0;part=1;" parent="83" vertex="1">
                    <mxGeometry y="30" width="140" height="93" as="geometry"/>
                </mxCell>
                <mxCell id="85" value="Certificate" style="swimlane;childLayout=stackLayout;horizontal=1;startSize=30;horizontalStack=0;rounded=1;fontSize=14;fontStyle=0;strokeWidth=2;resizeParent=0;resizeLast=1;shadow=0;dashed=0;align=center;" parent="1" vertex="1">
                    <mxGeometry x="40" y="600" width="75" height="80" as="geometry"/>
                </mxCell>
                <mxCell id="86" value="File" style="align=left;strokeColor=none;fillColor=none;spacingLeft=4;fontSize=12;verticalAlign=top;resizable=0;rotatable=0;part=1;" parent="85" vertex="1">
                    <mxGeometry y="30" width="75" height="50" as="geometry"/>
                </mxCell>
                <mxCell id="87" value="Student" style="swimlane;childLayout=stackLayout;horizontal=1;startSize=30;horizontalStack=0;rounded=1;fontSize=14;fontStyle=0;strokeWidth=2;resizeParent=0;resizeLast=1;shadow=0;dashed=0;align=center;" parent="1" vertex="1">
                    <mxGeometry x="-190" y="460" width="160" height="120" as="geometry"/>
                </mxCell>
                <mxCell id="88" value="name&#10;ProfilePicture&#10;email&#10;phone" style="align=left;strokeColor=none;fillColor=none;spacingLeft=4;fontSize=12;verticalAlign=top;resizable=0;rotatable=0;part=1;" parent="87" vertex="1">
                    <mxGeometry y="30" width="160" height="90" as="geometry"/>
                </mxCell>
                <mxCell id="89" value="" style="edgeStyle=entityRelationEdgeStyle;fontSize=12;html=1;endArrow=ERoneToMany;entryX=0;entryY=0;entryDx=0;entryDy=0;" parent="1" source="88" target="86" edge="1">
                    <mxGeometry width="100" height="100" relative="1" as="geometry">
                        <mxPoint x="-280" y="832" as="sourcePoint"/>
                        <mxPoint x="-190" y="622" as="targetPoint"/>
                    </mxGeometry>
                </mxCell>
                <mxCell id="91" value="Result" style="swimlane;childLayout=stackLayout;horizontal=1;startSize=30;horizontalStack=0;rounded=1;fontSize=14;fontStyle=0;strokeWidth=2;resizeParent=0;resizeLast=1;shadow=0;dashed=0;align=center;" parent="1" vertex="1">
                    <mxGeometry x="50" y="240" width="160" height="90" as="geometry"/>
                </mxCell>
                <mxCell id="92" value="NumberOfCorrectAnswer&#10;NumberOfWrongAnswer&#10;Rank" style="align=left;strokeColor=none;fillColor=none;spacingLeft=4;fontSize=12;verticalAlign=top;resizable=0;rotatable=0;part=1;" parent="91" vertex="1">
                    <mxGeometry y="30" width="160" height="60" as="geometry"/>
                </mxCell>
                <mxCell id="93" value="" style="edgeStyle=entityRelationEdgeStyle;fontSize=12;html=1;endArrow=ERzeroToMany;endFill=1;exitX=1;exitY=0;exitDx=0;exitDy=0;" parent="1" source="88" target="92" edge="1">
                    <mxGeometry width="100" height="100" relative="1" as="geometry">
                        <mxPoint x="-120" y="360" as="sourcePoint"/>
                        <mxPoint x="-20" y="260" as="targetPoint"/>
                    </mxGeometry>
                </mxCell>
                <mxCell id="94" value="" style="edgeStyle=entityRelationEdgeStyle;fontSize=12;html=1;endArrow=ERzeroToMany;endFill=1;entryX=1;entryY=0;entryDx=0;entryDy=0;exitX=0.001;exitY=0.537;exitDx=0;exitDy=0;exitPerimeter=0;" parent="1" source="33" target="92" edge="1">
                    <mxGeometry width="100" height="100" relative="1" as="geometry">
                        <mxPoint x="-30" y="230" as="sourcePoint"/>
                        <mxPoint x="70" y="130" as="targetPoint"/>
                    </mxGeometry>
                </mxCell>
                <mxCell id="96" value="CourseEnrollment" style="swimlane;childLayout=stackLayout;horizontal=1;startSize=30;horizontalStack=0;rounded=1;fontSize=14;fontStyle=0;strokeWidth=2;resizeParent=0;resizeLast=1;shadow=0;dashed=0;align=center;" parent="1" vertex="1">
                    <mxGeometry x="-210" y="240" width="140" height="110" as="geometry"/>
                </mxCell>
                <mxCell id="98" value="" style="edgeStyle=entityRelationEdgeStyle;fontSize=12;html=1;endArrow=ERzeroToMany;endFill=1;exitX=0.25;exitY=0;exitDx=0;exitDy=0;" parent="1" source="87" edge="1">
                    <mxGeometry width="100" height="100" relative="1" as="geometry">
                        <mxPoint x="-310" y="430" as="sourcePoint"/>
                        <mxPoint x="-210" y="330" as="targetPoint"/>
                    </mxGeometry>
                </mxCell>
                <mxCell id="102" value="" style="edgeStyle=entityRelationEdgeStyle;fontSize=12;html=1;endArrow=ERzeroToMany;endFill=1;exitX=1;exitY=0.5;exitDx=0;exitDy=0;" parent="1" source="66" target="96" edge="1">
                    <mxGeometry width="100" height="100" relative="1" as="geometry">
                        <mxPoint x="-60" y="140" as="sourcePoint"/>
                        <mxPoint x="-20" y="200" as="targetPoint"/>
                    </mxGeometry>
                </mxCell>
                <mxCell id="104" value="ParticipatedExam" style="swimlane;childLayout=stackLayout;horizontal=1;startSize=30;horizontalStack=0;rounded=1;fontSize=14;fontStyle=0;strokeWidth=2;resizeParent=0;resizeLast=1;shadow=0;dashed=0;align=center;" parent="1" vertex="1">
                    <mxGeometry x="70" y="440" width="140" height="110" as="geometry"/>
                </mxCell>
                <mxCell id="105" value="" style="edgeStyle=entityRelationEdgeStyle;fontSize=12;html=1;endArrow=ERzeroToMany;endFill=1;exitX=1;exitY=0.25;exitDx=0;exitDy=0;" parent="1" source="88" edge="1">
                    <mxGeometry width="100" height="100" relative="1" as="geometry">
                        <mxPoint y="420" as="sourcePoint"/>
                        <mxPoint x="70" y="480" as="targetPoint"/>
                    </mxGeometry>
                </mxCell>
                <mxCell id="106" value="" style="edgeStyle=entityRelationEdgeStyle;fontSize=12;html=1;endArrow=ERzeroToMany;endFill=1;exitX=-0.013;exitY=0.85;exitDx=0;exitDy=0;entryX=1;entryY=0.5;entryDx=0;entryDy=0;exitPerimeter=0;" parent="1" source="33" target="104" edge="1">
                    <mxGeometry width="100" height="100" relative="1" as="geometry">
                        <mxPoint y="420" as="sourcePoint"/>
                        <mxPoint x="230" y="400" as="targetPoint"/>
                    </mxGeometry>
                </mxCell>
                <mxCell id="107" value="CourseAssignedTeacher" style="swimlane;childLayout=stackLayout;horizontal=1;startSize=30;horizontalStack=0;rounded=1;fontSize=14;fontStyle=0;strokeWidth=2;resizeParent=0;resizeLast=1;shadow=0;dashed=0;align=center;" parent="1" vertex="1">
                    <mxGeometry x="-440" y="-90" width="200" height="110" as="geometry"/>
                </mxCell>
                <mxCell id="108" value="" style="edgeStyle=entityRelationEdgeStyle;fontSize=12;html=1;endArrow=ERzeroToMany;endFill=1;exitX=0;exitY=0.75;exitDx=0;exitDy=0;entryX=1;entryY=0.75;entryDx=0;entryDy=0;" parent="1" source="66" target="107" edge="1">
                    <mxGeometry width="100" height="100" relative="1" as="geometry">
                        <mxPoint x="-525" y="-10" as="sourcePoint"/>
                        <mxPoint x="-425" y="-110" as="targetPoint"/>
                    </mxGeometry>
                </mxCell>
                <mxCell id="110" value="" style="edgeStyle=entityRelationEdgeStyle;fontSize=12;html=1;endArrow=ERzeroToMany;endFill=1;exitX=0;exitY=0;exitDx=0;exitDy=0;entryX=1;entryY=0.25;entryDx=0;entryDy=0;" parent="1" source="84" target="107" edge="1">
                    <mxGeometry width="100" height="100" relative="1" as="geometry">
                        <mxPoint x="-670" y="40" as="sourcePoint"/>
                        <mxPoint x="-570" y="-60" as="targetPoint"/>
                    </mxGeometry>
                </mxCell>
                <mxCell id="111" value="ExamAssignedTeacher" style="swimlane;childLayout=stackLayout;horizontal=1;startSize=30;horizontalStack=0;rounded=1;fontSize=14;fontStyle=0;strokeWidth=2;resizeParent=0;resizeLast=1;shadow=0;dashed=0;align=center;" parent="1" vertex="1">
                    <mxGeometry x="40" y="-151.5" width="200" height="110" as="geometry"/>
                </mxCell>
                <mxCell id="112" value="" style="edgeStyle=entityRelationEdgeStyle;fontSize=12;html=1;endArrow=ERzeroToMany;endFill=1;exitX=1;exitY=0.75;exitDx=0;exitDy=0;entryX=0;entryY=0.25;entryDx=0;entryDy=0;" parent="1" source="83" target="111" edge="1">
                    <mxGeometry width="100" height="100" relative="1" as="geometry">
                        <mxPoint y="-50" as="sourcePoint"/>
                        <mxPoint x="100" y="-150" as="targetPoint"/>
                    </mxGeometry>
                </mxCell>
                <mxCell id="113" value="" style="edgeStyle=entityRelationEdgeStyle;fontSize=12;html=1;endArrow=ERzeroToMany;endFill=1;entryX=1;entryY=0.75;entryDx=0;entryDy=0;" parent="1" source="32" target="111" edge="1">
                    <mxGeometry width="100" height="100" relative="1" as="geometry">
                        <mxPoint x="20" y="210" as="sourcePoint"/>
                        <mxPoint x="120" y="110" as="targetPoint"/>
                    </mxGeometry>
                </mxCell>
                <mxCell id="114" value="CourseFeedback" style="swimlane;childLayout=stackLayout;horizontal=1;startSize=30;horizontalStack=0;rounded=1;fontSize=14;fontStyle=0;strokeWidth=2;resizeParent=0;resizeLast=1;shadow=0;dashed=0;align=center;" parent="1" vertex="1">
                    <mxGeometry x="50" y="10" width="160" height="111" as="geometry"/>
                </mxCell>
                <mxCell id="115" value="starRating&#10;text&#10;status" style="align=left;strokeColor=none;fillColor=none;spacingLeft=4;fontSize=12;verticalAlign=top;resizable=0;rotatable=0;part=1;" parent="114" vertex="1">
                    <mxGeometry y="30" width="160" height="81" as="geometry"/>
                </mxCell>
                <mxCell id="116" value="" style="edgeStyle=entityRelationEdgeStyle;fontSize=12;html=1;endArrow=ERzeroToMany;endFill=1;exitX=1.018;exitY=0.318;exitDx=0;exitDy=0;exitPerimeter=0;entryX=0;entryY=0.122;entryDx=0;entryDy=0;entryPerimeter=0;" parent="1" source="65" target="115" edge="1">
                    <mxGeometry width="100" height="100" relative="1" as="geometry">
                        <mxPoint x="-80" y="100" as="sourcePoint"/>
                        <mxPoint x="20" as="targetPoint"/>
                    </mxGeometry>
                </mxCell>
                <mxCell id="117" value="" style="edgeStyle=entityRelationEdgeStyle;fontSize=12;html=1;endArrow=ERzeroToMany;endFill=1;exitX=1;exitY=0.75;exitDx=0;exitDy=0;" parent="1" source="96" target="115" edge="1">
                    <mxGeometry width="100" height="100" relative="1" as="geometry">
                        <mxPoint x="-40" y="290" as="sourcePoint"/>
                        <mxPoint x="60" y="190" as="targetPoint"/>
                    </mxGeometry>
                </mxCell>
                <mxCell id="118" value="CourseQnA" style="swimlane;childLayout=stackLayout;horizontal=1;startSize=30;horizontalStack=0;rounded=1;fontSize=14;fontStyle=0;strokeWidth=2;resizeParent=0;resizeLast=1;shadow=0;dashed=0;align=center;" parent="1" vertex="1">
                    <mxGeometry x="-500" y="479" width="120" height="82" as="geometry"/>
                </mxCell>
                <mxCell id="119" value="question&#10;answer" style="align=left;strokeColor=none;fillColor=none;spacingLeft=4;fontSize=12;verticalAlign=top;resizable=0;rotatable=0;part=1;" parent="118" vertex="1">
                    <mxGeometry y="30" width="120" height="52" as="geometry"/>
                </mxCell>
                <mxCell id="121" value="" style="edgeStyle=entityRelationEdgeStyle;fontSize=12;html=1;endArrow=ERzeroToMany;endFill=1;exitX=0;exitY=0.75;exitDx=0;exitDy=0;entryX=0.382;entryY=0.003;entryDx=0;entryDy=0;entryPerimeter=0;" parent="1" source="107" target="118" edge="1">
                    <mxGeometry width="100" height="100" relative="1" as="geometry">
                        <mxPoint x="-790" y="460" as="sourcePoint"/>
                        <mxPoint x="-510" y="510" as="targetPoint"/>
                    </mxGeometry>
                </mxCell>
                <mxCell id="122" value="" style="edgeStyle=entityRelationEdgeStyle;fontSize=12;html=1;endArrow=ERzeroToMany;endFill=1;entryX=1;entryY=0.75;entryDx=0;entryDy=0;exitX=0;exitY=0.75;exitDx=0;exitDy=0;" parent="1" source="88" target="119" edge="1">
                    <mxGeometry width="100" height="100" relative="1" as="geometry">
                        <mxPoint x="-280" y="560" as="sourcePoint"/>
                        <mxPoint x="-460" y="520" as="targetPoint"/>
                    </mxGeometry>
                </mxCell>
                <mxCell id="123" value="" style="edgeStyle=entityRelationEdgeStyle;fontSize=12;html=1;endArrow=ERmandOne;startArrow=ERmandOne;exitX=1;exitY=0;exitDx=0;exitDy=0;entryX=0;entryY=0.5;entryDx=0;entryDy=0;" parent="1" source="119" target="66" edge="1">
                    <mxGeometry width="100" height="100" relative="1" as="geometry">
                        <mxPoint x="-480" y="420" as="sourcePoint"/>
                        <mxPoint x="-390" y="490" as="targetPoint"/>
                    </mxGeometry>
                </mxCell>
                <mxCell id="125" value="" style="edgeStyle=entityRelationEdgeStyle;fontSize=12;html=1;endArrow=ERoneToMany;startArrow=ERzeroToOne;exitX=1;exitY=0.75;exitDx=0;exitDy=0;entryX=0;entryY=0.25;entryDx=0;entryDy=0;" edge="1" parent="1" source="66" target="33">
                    <mxGeometry width="100" height="100" relative="1" as="geometry">
                        <mxPoint x="-30" y="240" as="sourcePoint"/>
                        <mxPoint x="70" y="140" as="targetPoint"/>
                    </mxGeometry>
                </mxCell>
            </root>
        </mxGraphModel>
    </diagram>
</mxfile>